# xmcd
#
# Track frame offsets: 
#        150
#        20478
#        40897
#        60044
#        96234
#        129072
#        173251
#        191773
#        214106
#        254413
#        303338
#
# Disc length: 4710 seconds
#
# Revision: 0
# Processed by: cddbd v1.5.2PL0 Copyright (c) Steve Scherf et al.
# Submitted via: ExactAudioCopy v0.99pb4
#
DISCID=8412640b
DTITLE=Various Artist - Blues In Concert
DYEAR=1974
DGENRE=Blues
TTITLE0=Jimmy McGriff/I Need Love So Badly - 71
TTITLE1=Jimmy McGriff/Don't Throw Your Love On Me So Strong - 71
TTITLE2=Jimmy McGriff/Pretty Baby - 71
TTITLE3=Jimmy McGriff/C Jam Blues - 71
TTITLE4=Buddy Rich/Jumpin' At The Woodside - 74
TTITLE5=Buddy Rich/Cardin Blue - 74
TTITLE6=Dakota Staton/Cry Me A River - 73
TTITLE7=Dakota Staton/It's The Talk Of The Town - 73
TTITLE8=Jimmy McGriff/Freedom Suite (Part I) - 73
TTITLE9=Groove Holmes/Groovin' Groove - 73
TTITLE10=Groove Holmes/Rainy Day - 73
EXTD=
EXTT0=
EXTT1=
EXTT2=
EXTT3=
EXTT4=
EXTT5=
EXTT6=
EXTT7=
EXTT8=
EXTT9=
EXTT10=
PLAYORDER=
